<?xml version="1.0" standalone="no"?>
<!DOCTYPE svg PUBLIC "-//W3C//DTD SVG 20010904//EN"
 "http://www.w3.org/TR/2001/REC-SVG-20010904/DTD/svg10.dtd">
<svg version="1.0" xmlns="http://www.w3.org/2000/svg"
 width="212.000000pt" height="212.000000pt" viewBox="0 0 212.000000 212.000000"
 preserveAspectRatio="xMidYMid meet">
<metadata>
Created by potrace 1.14, written by Peter Selinger 2001-2017
</metadata>
<g transform="translate(0.000000,212.000000) scale(0.100000,-0.100000)"
fill="#1BBB65" stroke="none">
<path d="M101 2093 c20 -22 185 -217 324 -382 11 -13 25 -29 30 -35 6 -6 32
-38 60 -71 27 -33 52 -62 56 -65 3 -3 74 -88 158 -190 84 -102 160 -194 169
-205 10 -11 44 -53 77 -94 l60 -74 0 -458 c0 -303 -3 -460 -10 -462 -5 -2 -63
-3 -127 -2 -113 0 -117 0 -121 -22 -2 -12 -2 -25 1 -28 3 -3 132 -5 288 -5
268 0 282 1 287 19 2 10 2 23 -2 28 -3 5 -62 9 -131 8 l-125 0 0 460 -1 460
165 205 c150 186 312 386 368 450 11 14 74 88 139 165 65 77 153 182 197 233
l79 92 -983 0 -983 0 25 -27z m1732 -125 c-43 -51 -82 -98 -88 -104 -6 -6 -33
-39 -60 -73 -49 -60 -51 -61 -100 -61 -93 -1 -899 -1 -1000 0 l-100 1 -105
126 c-58 69 -109 131 -115 138 -5 6 -21 23 -34 38 l-24 27 852 0 852 0 -78
-92z"/>
<path d="M497 914 c-149 -52 -226 -214 -195 -409 24 -157 129 -256 278 -261
85 -3 154 23 209 78 36 37 81 121 70 132 -2 3 -30 7 -61 11 -55 7 -57 6 -71
-22 -51 -96 -163 -114 -245 -39 -70 63 -79 259 -15 344 69 92 201 81 259 -21
11 -20 22 -35 25 -33 2 2 28 6 58 9 29 3 54 7 56 9 8 8 -47 107 -75 135 -68
69 -200 99 -293 67z"/>
<path d="M1497 908 c-57 -152 -237 -647 -237 -651 0 -4 31 -7 68 -7 l68 0 23
70 c22 70 22 70 59 71 36 1 156 1 198 0 17 -1 26 -15 46 -68 l25 -68 68 -3
c61 -3 67 -1 63 15 -3 10 -55 155 -117 323 -62 168 -114 311 -116 318 -3 8
-27 12 -74 12 -46 0 -70 -4 -74 -12z m122 -280 c22 -67 39 -124 36 -126 -5 -6
-166 -4 -171 1 -6 5 79 247 87 247 3 0 25 -55 48 -122z"/>
</g>
</svg>
